<?xml version="1.0"?>
<svg xmlns="http://www.w3.org/2000/svg" xmlns:xlink="http://www.w3.org/1999/xlink" xmlns:svgjs="http://svgjs.com/svgjs" version="1.1" width="512" height="512" x="0" y="0" viewBox="0 0 512 512" style="enable-background:new 0 0 512 512" xml:space="preserve" class=""><g transform="matrix(0.7500000000000001,0,0,0.7500000000000001,64.00000143051145,64.00000190734863)"><g xmlns="http://www.w3.org/2000/svg"><g><path d="m512 153.571c0-15.125-12.305-27.431-27.43-27.431h-8.323v-15.724c0-15.809-12.049-28.857-27.447-30.444v-13.192c0-15.407-12.534-27.941-27.94-27.941h-8.194c-15.391 0-27.913 12.534-27.913 27.941v13.03h-37.006l-7.373-23.346c-3.93-12.481-12.258-15.101-18.552-15.101h-131.644c-6.294 0-14.623 2.62-18.548 15.09l-7.4 23.357h-36.984v-13.03c0-15.407-12.535-27.941-27.941-27.941h-8.165c-15.406 0-27.94 12.534-27.94 27.941v13.193c-15.397 1.586-27.447 14.634-27.447 30.444v15.724h-8.351c-15.11-.001-27.402 12.305-27.402 27.43 0 14.782 11.767 26.86 26.426 27.378v207.55c-10.969 1.799-19.366 11.34-19.366 22.81v47.578c0 7.871 6.403 14.274 14.274 14.274h465.646c7.87 0 14.274-6.403 14.274-14.274v-47.578c0-10.146-6.572-18.78-15.68-21.885v-208.476c14.661-.531 26.426-12.604 26.426-27.377zm-112.364-86.791c0-7.201 5.845-13.059 13.031-13.059h8.194c7.2 0 13.058 5.858 13.058 13.059v13.03h-34.282v-13.03zm-213.816-5.846c1.477-4.689 2.812-4.689 4.358-4.689h131.644c1.546 0 2.881 0 4.359 4.695l5.96 18.871h-152.3zm-107.738 5.846c0-7.201 5.858-13.059 13.058-13.059h8.166c7.201 0 13.059 5.858 13.059 13.059v13.03h-34.283zm-27.447 43.636c0-8.67 7.054-15.724 15.724-15.724h4.282 49.165 49.873 172.615 49.901 49.165 4.282c8.671 0 15.724 7.054 15.724 15.724v15.724h-410.731zm435.737 347.863h-464.429v-46.97c0-4.543 3.695-8.238 8.238-8.238h14.121c4.559 0 8.267 3.696 8.267 8.238v14.461c0 4.11 3.331 7.441 7.441 7.441h180.837c4.11 0 7.441-3.332 7.441-7.441s-3.331-7.441-7.441-7.441h-173.397v-7.02c0-12.749-10.385-23.121-23.149-23.121h-2.993v-207.215h199.538c4.11 0 7.441-3.332 7.441-7.441s-3.331-7.441-7.441-7.441h-213.444c-6.903 0-12.52-5.616-12.52-12.52 0-6.919 5.617-12.549 12.52-12.549h457.168c6.919 0 12.548 5.629 12.548 12.549 0 6.904-5.629 12.52-12.548 12.52h-209.106c-4.11 0-7.441 3.332-7.441 7.441s3.331 7.441 7.441 7.441h195.228v207.215h-6.707c-12.749 0-23.121 10.372-23.121 23.121v7.02h-165.4c-4.11 0-7.441 3.332-7.441 7.441s3.331 7.441 7.441 7.441h172.842c4.11 0 7.441-3.332 7.441-7.441v-14.461c0-4.543 3.695-8.238 8.238-8.238h14.148c4.543 0 8.238 3.696 8.238 8.238v46.97z" fill="#333333" data-original="#000000" style="" class=""/><path d="m313.92 286.498c-2.95-5.97-10.454-5.97-13.279-5.97h-33.624l11.565-47.452c1.019-4.19 3.14-12.909-3.772-16.202-7.199-3.432-13.097 4.311-17.389 9.948l-55.01 71.825c-2.765 3.617-7.395 9.671-4.344 15.845 2.972 6.011 10.385 6.011 13.175 6.011h33.588l-11.534 47.444c-1.77 7.372-.314 12.235 4.329 14.453 1.284.613 2.542.876 3.761.876 6.105 0 11.19-6.612 13.078-9.069l54.979-71.851c2.98-3.894 7.481-9.78 4.477-15.858zm-61.536 65.941 7.118-29.283c.843-3.468 1.58-8.566-1.731-12.781-3.349-4.262-8.659-4.754-12.361-4.754h-29.594l43.663-57.01-7.491 30.733c-.67 2.747-1.917 7.862 1.289 11.943 3.238 4.123 8.48 4.123 11.611 4.123h31.132z" fill="#333333" data-original="#000000" style="" class=""/><path d="m383.859 265.582h8.976v9.004c0 4.11 3.331 7.441 7.441 7.441s7.441-3.332 7.441-7.441v-9.004h9.003c4.11 0 7.441-3.332 7.441-7.441 0-4.11-3.331-7.441-7.441-7.441h-9.003v-9.004c0-4.11-3.331-7.441-7.441-7.441s-7.441 3.332-7.441 7.441v9.004h-8.976c-4.11 0-7.441 3.332-7.441 7.441s3.331 7.441 7.441 7.441z" fill="#333333" data-original="#000000" style="" class=""/><path d="m117.991 250.7h-28.326c-4.11 0-7.441 3.332-7.441 7.441 0 4.11 3.331 7.441 7.441 7.441h28.326c4.11 0 7.441-3.332 7.441-7.441 0-4.11-3.331-7.441-7.441-7.441z" fill="#333333" data-original="#000000" style="" class=""/></g></g></g></svg>
